<svg viewBox="0 0 1235.62 488.98" xmlns="http://www.w3.org/2000/svg"><g fill="#fff" transform="translate(-47.38 -157.83)"><path d="m629.21 350c-2.83 12-5.54 24.44-8.7 36.76-7.45 29.11 24.88 76.13 46.94 85.27 26.47 11 51-2.27 55.67-32.45 6-38.48-1.74-73.08-31.25-100.8-9.92-9.32-21.8-13.47-35-13.92-10.89-.37-21.81-.08-35-.08 15-13.68 30.47-21.08 47.8-24.45 70.14-13.6 102.2 47.7 95.9 97.16-4.35 34.1-26.07 57-48.55 80-13.75 14.11-29.54 23.83-48.38 27.95-25.68 5.61-47.2-1.79-65-21.94-16.23-18.41-24.85-38.86-24-63.52 1.01-27.41 24.98-61.36 49.57-69.98z"/><path d="m1197.56 561.17c-4.47 1-8.92 2.88-13.4 2.93-77.31.85-154.64.72-231.93 2.39-54.82 1.18-109.59 4.48-164.36 7.35-16.78.88-33.52 3.12-50.19 5.4-25.66 3.5-51.3 7.23-76.83 11.58-10.21 1.74-19.47 1.12-28.17-4.52-14.56-9.45-29.06-19-43.39-29.5 202.71-21.48 405.15-18.28 608.27 4.37z"/><path d="m978.81 374c-4.39 6.6-8.67 14.31-14.29 20.86-2.06 2.4-7.27 2.61-11.1 2.88-5.76.41-8 2.93-7.79 8.66.94 23.24 1.86 46.48 2.32 69.73.06 3.43-1.35 8.43-3.83 10.09-9.55 6.4-19.81 11.74-30 17.57-2.55-33.7-5.06-66.82-7.64-100.9l-30.67-2.11-1.17-2.48c4.91-5.16 9.32-10.94 14.84-15.33 10.61-8.45 18.92-17.92 21.89-31.72a47.64 47.64 0 0 1 21.27-30.94c11.24-7.35 21.79-15.76 32.8-23.48 12.61-8.83 31.78-5.39 39.25 8 1.7 3.06-.49 10.44-3.38 13.42-5 5.11-11.85 8.33-17.53 12.06-5.94-4.27-10.72-8.79-16.36-11.53-11.5-5.58-20.18-1.33-21.72 11-1.51 12.1-1.48 24.38-2 36.59-.25 5.79 2.5 8.05 8.44 7.76 8.77-.49 17.57-.13 26.67-.13z"/><path d="m814.66 503.22c-2-34-4-66.89-6-100.44l-32.24-1.78-1.68-3.43c8.93-8 17.94-15.91 26.71-24.08 2.75-2.57 6.65-5.68 6.95-8.83 3.17-33.65 28.86-48.5 52.88-65.05 9.6-6.62 19.17-11.51 30.37-5.23 6.87 3.85 13 9.11 20.88 14.79l-27.32 21.43c-6.09-4.32-11-8.65-16.58-11.56-11.69-6.08-20.68-2-22.32 10.78-1.47 11.42-1.41 23.09-1.3 34.64.07 6.7 4.9 9.42 11.26 9.45h25.28c-10.22 10.62-15.55 23.18-29.45 26.09-6.44 1.35-6.44 5.7-6.3 10.37.66 21.45 1.17 42.92 2.31 64.35.37 7.07-1.7 11.5-8.08 14.65-8.42 4.17-16.52 8.98-25.37 13.85z"/><path d="m1087.08 471.59c-11 20-28.12 30.35-47.57 34.9-14 3.29-27.56-4.34-36.86-15-14.3-16.39-23.63-35.34-17.41-58.09a66.32 66.32 0 0 1 9-19c15.65-23.36 35.23-40.86 65.62-40.4 15.64.24 26 7.44 28 19.89.56 3.55 0 8.44-2.14 11.07-14.24 17.68-31.55 31.23-54.38 36.62 4.25-3.4 8.71-6.56 12.7-10.24 9.72-9 10.09-20.09 1.21-27.92-10.55-9.29-21.57-8.79-28.8 3.06-3.65 6-6.09 14.54-5 21.27 5.54 34.22 31.62 51 67.64 45 2.17-.38 4.44-.66 7.99-1.16z"/><path d="m1155.41 370.32 6.73 35.89c5.12-5.19 9.16-9.84 13.77-13.83 8-7 16.28-13.75 24.86-20 1.57-1.16 6.21-.58 7.61.91 4.54 4.88 9.16 10.09 12.08 16 5.42 11 4.27 13.05-5.92 19.86-6.34 4.24-12.44 8.84-17.93 12.76-5.14-4.57-9.79-9.48-15.25-13.19-2.14-1.44-7.17-1.5-9 .05-7.57 6.27-11.92 14.53-11.83 24.77.13 15.63-.11 31.27.2 46.89.11 5.23-1.37 8.43-6.27 10.84-8.17 4-16 8.83-24.93 13.87-.33-3.54-.72-6.11-.79-8.69-.69-25.71-1.29-51.42-2-77.13-.35-12.66-.93-13.16-13.88-13.44-3.28-.07-6.57 0-11.52 0 14.82-17.59 32.8-27 54.07-35.56z"/><path d="m290.75 646.76c-134.47 2.57-245.51-110.76-243.34-248.25 2.05-129.88 108.16-242.9 248-240.65 131.28 2.11 239.28 111 238.77 246.2-.5 132.59-108.47 245.09-243.43 242.7zm-66.91-267.34c-25.6-5.48-51.17-11-76.81-16.29-2-.42-5.34.53-6.54 2.05-11.45 14.5-22.58 29.26-33.8 43.95l2 4 135.28 12c-1.55 1.81-3 3.73-4.71 5.47-29.49 30.65-64.72 53-102.94 71-5.8 2.73-12.09 4.42-17.89 7.15-2 .93-4.75 4-4.4 5.43 3.5 14.74 7.57 29.35 11.7 44.82 29.73-17.31 58.73-33.66 81.45-58.23 16.57-17.92 31.21-37.62 46.85-56.41 1.6-1.93 4.16-3.05 6.28-4.54 1.05 1.87 2.76 3.64 3.07 5.63 5.2 33.17 10 66.42 15.41 99.55 2.08 12.59 6.26 24.64 15.52 34.56 10.45-7.19 9.36-17.22 8.89-27q-2.67-55.47-5.36-110.93a18.48 18.48 0 0 1 .61-4.42c19.33 22.8 37.78 46.52 58.33 68.26 22.5 23.8 49.73 41.66 79.66 55.27 6.28 2.85 9.83 3 11.42-5.18a200.41 200.41 0 0 1 8.1-29.11c3.08-8.62.56-12.79-7.94-15.32-34.9-10.42-64.27-31-92.94-52.39-15-11.16-28.13-24.7-42.12-37.16l1.76-2.85c10.59-1 21.24-1.49 31.74-3.07 35.31-5.29 70.66-10.41 105.76-16.91 8.06-1.49 17.41-5.17 22.77-17.66l-115.88 6.11c-.28-.93-.55-1.85-.82-2.77 10.09-10.25 20.06-20.62 30.32-30.69 7.17-7 7.45-10.75-.66-16.94-5.81-4.44-12.31-8-18.5-11.93-6-3.81-9.87-2.06-13.1 4.1-9.09 17.36-18.48 34.56-28 51.7-1.29 2.33-3.9 5.55-5.93 5.57-6.61.05-13.23-1.18-21.9-2.15 2.65-18.45 4.44-36.6 8.35-54.28 1-4.61 8.11-9 13.38-11.21 5.42-2.24 12-1.48 18.08-2.35 29.62-4.27 59.35-8 88.76-13.42 8-1.48 17.95-4.21 22-16.26-44.48-5.11-87.61 9.79-132.85 3 3.46-14.15 6.33-28.17 10.47-41.81 2-6.48.92-10.41-4.63-13.71-12.9-7.68-25.86-15.29-38.57-23.28-4.66-2.93-8.68-6.85-14.12-11.22-4 24.49-7.76 47.33-11.34 70.21-2 12.84-2.88 13.93-15.49 11.8-22.58-3.8-45.14-7.8-67.61-12.18-7.82-1.53-14.15-.17-18.58 6.42-7.74 11.53-15.11 23.31-23.24 35.94l55.7 9.72c-8.5 11.22-15.54 20.49-24 31.67 8.22.78 13.62 1.33 19 1.8 17 1.45 30.09 9 38 24.49z"/><path d="m223.82 379.44c2-2.61 5.28-5 5.68-7.86 2.05-14.51-3.43-26.9-12.27-38.06-1.83-2.31-3.79-4.53-6.95-8.29 14.35.66 27 .91 39.6 2.17 1.83.18 4.45 5.1 4.54 7.89.45 14.89.21 29.79.21 46.13l-30.79-2z"/><path d="m1264.5 267a16.5 16.5 0 1 1 -16.5 16.5 16.52 16.52 0 0 1 16.5-16.5m0-2a18.5 18.5 0 1 0 18.5 18.5 18.5 18.5 0 0 0 -18.5-18.5z"/><path d="m1257.93 292.09v-17.18h7.62a10.12 10.12 0 0 1 3.49.46 3.84 3.84 0 0 1 1.96 1.63 4.83 4.83 0 0 1 .71 2.59 4.31 4.31 0 0 1 -1.18 3.08 5.94 5.94 0 0 1 -3.66 1.59 6 6 0 0 1 1.38.86 11.91 11.91 0 0 1 1.88 2.28l3 4.68h-2.86l-2.27-3.57c-.67-1-1.21-1.82-1.64-2.37a5.14 5.14 0 0 0 -1.16-1.15 3.47 3.47 0 0 0 -1-.46 7.37 7.37 0 0 0 -1.27-.08h-2.64v7.63zm2.27-9.6h4.89a7.5 7.5 0 0 0 2.44-.32 2.57 2.57 0 0 0 1.33-1 2.75 2.75 0 0 0 .46-1.54 2.58 2.58 0 0 0 -.88-2 4.18 4.18 0 0 0 -2.8-.78h-5.44z"/></g></svg>